<?xml version="1.0" encoding="utf-8"?>
<!-- Generator: Adobe Illustrator 27.0.0, SVG Export Plug-In . SVG Version: 6.00 Build 0)  -->
<svg version="1.1" id="图层_1" xmlns="http://www.w3.org/2000/svg" xmlns:xlink="http://www.w3.org/1999/xlink" x="0px" y="0px"
	 viewBox="0 0 150 40" style="enable-background:new 0 0 150 40;" xml:space="preserve">
<style type="text/css">
	.st0{fill:none;}
	.st1{fill:#FFFFFF;}
</style>
<g>
	<path d="M22,12.8"/>
	<g>
		<path class="st0" d="M62.6,13.9c0,0.3-0.2,0.5-0.4,0.5c-0.2,0.1-0.4,0.1-0.6,0.2c-5,1.4-7.3,4.5-7.1,9.9c0.2,4.6,2.9,7.9,7.8,8.5
			c3.9,0.5,7.8,0.3,11.8,0.3c1.6,0,2.1-0.8,2.1-2.6c0-8.3,0-16.6,0-24.9c0-2.3-0.5-2.8-2.8-2.9c-2.6,0-5.2,0-7.8,0c-2.6,0-3,0.5-3,3
			C62.6,8.6,62.6,11.3,62.6,13.9z M5.5,23.9c0,2.2,0,4.4,0,6.6c0,2.3,0.6,2.9,2.9,2.9c2.5,0,5,0,7.5,0c2.6,0,3.2-0.6,3.2-3.1
			c0-4.1,0-8.1,0-12.2c0-1.2,0.6-1.6,1.5-1.7c1-0.1,1.5,0.5,1.7,1.4c0.1,0.4,0.1,0.9,0.1,1.3c0,4.3,0,8.6,0,12.9
			c0,1.1,0.3,1.5,1.4,1.4c1,0,1.4-0.4,1.4-1.4c0-4.6,0-9.2-0.1-13.8c0-1.3,0.5-1.8,1.6-1.9c1.1-0.1,1.6,0.6,1.7,1.7c0,0.5,0,1,0,1.6
			c0,4.2,0,8.4,0,12.6c0,0.9,0.4,1.2,1.3,1.2c0.8,0,1.5,0,1.5-1.1c0-4.8,0.1-9.6-0.1-14.4c-0.1-3.4-2.7-4.9-5.8-3.4
			c-0.8,0.4-1.4,0.3-2.2-0.1c-0.7-0.4-1.7-0.5-2.5-0.3c-1.5,0.5-2.8,0.5-4.4,0.4c-2.8-0.3-5.6-0.1-8.4-0.1c-1.7,0-2.3,0.7-2.3,2.4
			C5.4,19.3,5.5,21.6,5.5,23.9z M135.8,34c0.7,0,1.4,0,2.1,0c4.7-0.3,8.1-2.9,8.9-7.1c0.3-1.8,0.3-3.6,0.1-5.4
			c-0.4-3.5-2.5-5.8-5.8-6.9c-2.7-0.9-5.5-1.1-8.3-0.5c-3.7,0.7-6.6,2.4-7.9,6.1c-1.2,3.8-1,7.5,1.8,10.6
			C129,33.5,132.3,34,135.8,34z M102.2,18.2c0.1,0.2,0.4,0.3,0.6,0.2c1.1-0.4,2.1-0.8,3.1-0.9c1.2-0.2,1.8,0.5,2,1.9
			c0.2,1.1-0.1,1.6-1.4,1.8c-2.7,0.4-5,1.6-5.8,4.5c-1,3.8,1.2,6.9,5.3,7.6c1.1,0.2,2.2,0.3,3.4,0.3c3.2,0,6.3,0,9.5,0
			c1.8,0,2.6-0.6,2.6-2c0-3.6,0.1-7.2-0.1-10.8c-0.2-2.9-1.8-5.1-4.7-5.8c-4.7-1.2-9.3-0.9-13.8,1.3
			C101.4,16.9,101.2,17.1,102.2,18.2z M49.1,17.6c-0.4,0.3-0.9,0.1-1-0.4l0,0c-0.1-2.2-0.5-2.7-2.6-2.8c-2.8-0.1-5.7,0-8.5,0
			c-1.9,0-2.4,0.6-2.4,2.4c0,4.5,0,9,0,13.5c0,1.6,1.3,3,3,3c2.7,0.1,5.4,0.1,8.1,0c1.9,0,2.5-0.7,2.5-2.7c0-2.7,0-5.4,0-8.2
			c0-0.9,0.3-1.5,1-2c1.6-1.2,3.1-2.4,4.7-3.6c0.7-0.5,1.3-1.1,0.4-2c-1-1.1-1.3-1.2-2.3-0.2C51.1,15.7,50.2,16.6,49.1,17.6z
			 M93.5,20.7c-0.7,0-0.7,0-1.4,0c-0.6-1.6-1.3-3.1-1.9-4.7c-0.4-1.2-1.1-1.6-2.3-1.6c-2.7,0-5.4,0-8.2,0c-1.9,0-2.2,0.4-1.3,2.1
			c2.5,4.8,4.8,9.7,7.5,14.3c1.4,2.4,1.6,4.3,0.1,6.6c-0.5,0.8-0.9,1.8-1.3,2.7c-0.1,0.3,0.1,0.7,0.4,0.8c2.4,0.5,2.9,0.1,3.9-2.2
			c3.2-7.6,6.4-15.2,9.7-22.8c0.1-0.3,0.2-0.5,0.3-0.8c0.1-0.3-0.1-0.6-0.4-0.7c-2.3-0.4-2.7-0.1-3.5,2.1C94.5,18,94,19.3,93.5,20.7
			z"/>
		<path class="st1" d="M62.6,14.4C62.6,14.4,62.6,14.4,62.6,14.4c0-2.8,0-5.6,0-8.4c0-2.6,0.5-3,3-3c2.6,0,5.2,0,7.8,0
			c2.3,0,2.8,0.6,2.8,2.9c0,8.3,0,16.6,0,24.9c0,1.8-0.5,2.6-2.1,2.6c-3.9,0-7.9,0.2-11.8-0.3c-4.9-0.6-7.6-3.9-7.8-8.5
			c-0.2-5.3,2-8.5,7.1-9.9C61.8,14.6,62.1,14.5,62.6,14.4z M62.5,30.8V16.9c0,0,0,0,0,0c-3-0.1-5.2,2.3-5.5,5.9
			C56.7,27.4,58.6,30.2,62.5,30.8C62.5,30.8,62.5,30.8,62.5,30.8z"/>
		<path class="st1" d="M25.2,14.6c3.1-1.4,5.7,0,5.8,3.4c0.2,4.8,0.1,9.6,0.1,14.4c0,1.1-0.7,1.1-1.5,1.1c-0.9,0-1.3-0.3-1.3-1.2
			c0-4.2,0-8.4,0-12.6c0-0.5,0-1,0-1.6c-0.1-1-0.6-1.8-1.7-1.7c-1.1,0.1-1.6,0.6-1.6,1.9c0.1,4.6,0,9.2,0.1,13.8
			c0,1-0.4,1.3-1.4,1.4c-1.1,0-1.4-0.4-1.4-1.4c0-4.3,0-8.6,0-12.9c0-0.4,0-0.9-0.1-1.3c-0.1-0.9-0.7-1.5-1.7-1.4
			c-1,0.1-1.5,0.5-1.5,1.7c0.1,4.1,0,8.1,0,12.2c0,2.5-0.6,3.1-3.2,3.1c-2.5,0-5,0-7.5,0c-2.3,0-2.9-0.6-2.9-2.9c0-2.2,0-4.4,0-6.6
			c0-2.3,0-4.7,0-7c0-1.8,0.6-2.4,2.3-2.4"/>
		<path class="st1" d="M135.8,34c-3.5,0-6.8-0.5-9.2-3.2c-2.8-3.1-3-6.8-1.8-10.6c1.2-3.7,4.2-5.4,7.9-6.1c2.8-0.5,5.6-0.4,8.3,0.5
			c3.3,1.1,5.4,3.4,5.8,6.9c0.2,1.8,0.2,3.6-0.1,5.4c-0.8,4.2-4.1,6.8-8.9,7.1C137.2,34,136.5,34,135.8,34z M138.7,27.7
			c0.3,1.1,1,1.8,2.3,1.9c1.3,0.1,2.3-0.3,2.8-1.6c1-2.7,1.1-5.4,0.1-8.1c-0.4-1.1-1.3-1.7-2.5-1.8c-1.3,0-2.2,0.6-2.6,1.8"/>
		<path class="st1" d="M102.4,18.5C102.4,18.5,102.4,18.5,102.4,18.5c-1.2-1.4-1.2-1.5,0.4-2.3c4.4-2.2,9.1-2.5,13.8-1.3
			c2.9,0.7,4.6,2.9,4.7,5.8c0.2,3.6,0.1,7.2,0.1,10.8c0,1.4-0.8,2-2.6,2c-3.2,0-6.3,0-9.5,0c-1.1,0-2.2-0.1-3.4-0.3
			c-4.1-0.7-6.3-3.8-5.3-7.6c0.8-2.9,3.1-4.1,5.8-4.5c1.3-0.2,1.6-0.7,1.4-1.8c-0.2-1.3-0.8-2-2-1.9
			C104.7,17.6,103.7,18.1,102.4,18.5z M107.8,31.1v-7.9c0,0,0,0,0,0c-1.7-0.1-3.2,0.2-4.1,1.6c-0.9,1.3-1,2.9-0.2,4.3
			C104.4,30.9,106,31.1,107.8,31.1C107.8,31.2,107.8,31.2,107.8,31.1z"/>
		<path class="st1" d="M48.2,18.5C48.2,18.5,48.2,18.5,48.2,18.5c1.5-1.4,2.7-2.5,3.9-3.7c1-1,1.3-0.9,2.3,0.2
			c0.9,0.9,0.3,1.4-0.4,2c-1.6,1.2-3.1,2.5-4.7,3.6c-0.7,0.5-1,1.1-1,2c0.1,2.7,0,5.4,0,8.2c0,1.9-0.6,2.6-2.5,2.7
			c-2.9,0.1-5.8,0.1-8.7,0c-1.3,0-2.4-1.1-2.4-2.5c0-4.7,0-9.4,0-14.1c0-1.8,0.6-2.4,2.4-2.4c2.8-0.1,5.7-0.1,8.5,0
			c2.2,0.1,2.6,0.6,2.6,2.8C48.2,17.5,48.2,17.8,48.2,18.5z"/>
		<path class="st1" d="M93,22c0.7-1.8,1.4-3.6,2.1-5.4c0.9-2.4,1.3-2.6,4.1-2c0,0,0,0,0,0c-0.1,0.5-0.3,1-0.4,1.4
			c-3.2,7.6-6.4,15.2-9.7,22.8c-1.1,2.5-1.5,2.7-4.5,2.1c0,0,0,0,0,0c0.5-1.2,0.9-2.4,1.5-3.4c1.5-2.3,1.2-4.3-0.1-6.6
			c-2.7-4.7-5.1-9.5-7.5-14.3c-0.9-1.7-0.6-2.1,1.3-2.1c2.7,0,5.4,0,8.2,0c1.2,0,1.9,0.5,2.3,1.6c0.7,2,1.6,4,2.4,6
			C92.8,22,92.8,22,93,22z"/>
		<path class="st1" d="M62.5,30.8"/>
		<path class="st1" d="M62.5,16.9"/>
		<line class="st1" x1="138" y1="24.2" x2="138" y2="24.2"/>
	</g>
</g>
</svg>
